<svg id="visual" viewBox="0 0 900 600" width="900" height="600" xmlns="http://www.w3.org/2000/svg" xmlns:xlink="http://www.w3.org/1999/xlink" version="1.1"><path d="M0 43L9.3 43C18.7 43 37.3 43 56.2 42C75 41 94 39 112.8 37C131.7 35 150.3 33 169 32C187.7 31 206.3 31 225 32C243.7 33 262.3 35 281.2 35C300 35 319 33 337.8 34C356.7 35 375.3 39 394 41C412.7 43 431.3 43 450 42C468.7 41 487.3 39 506.2 37C525 35 544 33 562.8 33C581.7 33 600.3 35 619 37C637.7 39 656.3 41 675 41C693.7 41 712.3 39 731.2 38C750 37 769 37 787.8 38C806.7 39 825.3 41 844 42C862.7 43 881.3 43 890.7 43L900 43L900 0L890.7 0C881.3 0 862.7 0 844 0C825.3 0 806.7 0 787.8 0C769 0 750 0 731.2 0C712.3 0 693.7 0 675 0C656.3 0 637.7 0 619 0C600.3 0 581.7 0 562.8 0C544 0 525 0 506.2 0C487.3 0 468.7 0 450 0C431.3 0 412.7 0 394 0C375.3 0 356.7 0 337.8 0C319 0 300 0 281.2 0C262.3 0 243.7 0 225 0C206.3 0 187.7 0 169 0C150.3 0 131.7 0 112.8 0C94 0 75 0 56.2 0C37.3 0 18.7 0 9.3 0L0 0Z" fill="#76fe69"></path><path d="M0 73L9.3 73C18.7 73 37.3 73 56.2 72C75 71 94 69 112.8 66C131.7 63 150.3 59 169 57C187.7 55 206.3 55 225 57C243.7 59 262.3 63 281.2 63C300 63 319 59 337.8 60C356.7 61 375.3 67 394 69C412.7 71 431.3 69 450 67C468.7 65 487.3 63 506.2 61C525 59 544 57 562.8 57C581.7 57 600.3 59 619 62C637.7 65 656.3 69 675 70C693.7 71 712.3 69 731.2 68C750 67 769 67 787.8 67C806.7 67 825.3 67 844 67C862.7 67 881.3 67 890.7 67L900 67L900 41L890.7 41C881.3 41 862.7 41 844 40C825.3 39 806.7 37 787.8 36C769 35 750 35 731.2 36C712.3 37 693.7 39 675 39C656.3 39 637.7 37 619 35C600.3 33 581.7 31 562.8 31C544 31 525 33 506.2 35C487.3 37 468.7 39 450 40C431.3 41 412.7 41 394 39C375.3 37 356.7 33 337.8 32C319 31 300 33 281.2 33C262.3 33 243.7 31 225 30C206.3 29 187.7 29 169 30C150.3 31 131.7 33 112.8 35C94 37 75 39 56.2 40C37.3 41 18.7 41 9.3 41L0 41Z" fill="#85fe7a"></path><path d="M0 121L9.3 123C18.7 125 37.3 129 56.2 131C75 133 94 133 112.8 130C131.7 127 150.3 121 169 118C187.7 115 206.3 115 225 115C243.7 115 262.3 115 281.2 113C300 111 319 107 337.8 109C356.7 111 375.3 119 394 123C412.7 127 431.3 127 450 125C468.7 123 487.3 119 506.2 115C525 111 544 107 562.8 110C581.7 113 600.3 123 619 126C637.7 129 656.3 125 675 125C693.7 125 712.3 129 731.2 129C750 129 769 125 787.8 125C806.7 125 825.3 129 844 132C862.7 135 881.3 137 890.7 138L900 139L900 65L890.7 65C881.3 65 862.7 65 844 65C825.3 65 806.7 65 787.8 65C769 65 750 65 731.2 66C712.3 67 693.7 69 675 68C656.3 67 637.7 63 619 60C600.3 57 581.7 55 562.8 55C544 55 525 57 506.2 59C487.3 61 468.7 63 450 65C431.3 67 412.7 69 394 67C375.3 65 356.7 59 337.8 58C319 57 300 61 281.2 61C262.3 61 243.7 57 225 55C206.3 53 187.7 53 169 55C150.3 57 131.7 61 112.8 64C94 67 75 69 56.2 70C37.3 71 18.7 71 9.3 71L0 71Z" fill="#93fe8a"></path><path d="M0 151L9.3 153C18.7 155 37.3 159 56.2 161C75 163 94 163 112.8 161C131.7 159 150.3 155 169 152C187.7 149 206.3 147 225 146C243.7 145 262.3 145 281.2 144C300 143 319 141 337.8 144C356.7 147 375.3 155 394 158C412.7 161 431.3 159 450 156C468.7 153 487.3 149 506.2 145C525 141 544 137 562.8 141C581.7 145 600.3 157 619 160C637.7 163 656.3 157 675 157C693.7 157 712.3 163 731.2 164C750 165 769 161 787.8 161C806.7 161 825.3 165 844 167C862.7 169 881.3 169 890.7 169L900 169L900 137L890.7 136C881.3 135 862.7 133 844 130C825.3 127 806.7 123 787.8 123C769 123 750 127 731.2 127C712.3 127 693.7 123 675 123C656.3 123 637.7 127 619 124C600.3 121 581.7 111 562.8 108C544 105 525 109 506.2 113C487.3 117 468.7 121 450 123C431.3 125 412.7 125 394 121C375.3 117 356.7 109 337.8 107C319 105 300 109 281.2 111C262.3 113 243.7 113 225 113C206.3 113 187.7 113 169 116C150.3 119 131.7 125 112.8 128C94 131 75 131 56.2 129C37.3 127 18.7 123 9.3 121L0 119Z" fill="#a1fe99"></path><path d="M0 187L9.3 189C18.7 191 37.3 195 56.2 197C75 199 94 199 112.8 195C131.7 191 150.3 183 169 180C187.7 177 206.3 179 225 179C243.7 179 262.3 177 281.2 176C300 175 319 175 337.8 177C356.7 179 375.3 183 394 186C412.7 189 431.3 191 450 189C468.7 187 487.3 181 506.2 177C525 173 544 171 562.8 175C581.7 179 600.3 189 619 191C637.7 193 656.3 187 675 187C693.7 187 712.3 193 731.2 194C750 195 769 191 787.8 191C806.7 191 825.3 195 844 196C862.7 197 881.3 195 890.7 194L900 193L900 167L890.7 167C881.3 167 862.7 167 844 165C825.3 163 806.7 159 787.8 159C769 159 750 163 731.2 162C712.3 161 693.7 155 675 155C656.3 155 637.7 161 619 158C600.3 155 581.7 143 562.8 139C544 135 525 139 506.2 143C487.3 147 468.7 151 450 154C431.3 157 412.7 159 394 156C375.3 153 356.7 145 337.8 142C319 139 300 141 281.2 142C262.3 143 243.7 143 225 144C206.3 145 187.7 147 169 150C150.3 153 131.7 157 112.8 159C94 161 75 161 56.2 159C37.3 157 18.7 153 9.3 151L0 149Z" fill="#aefda8"></path><path d="M0 295L9.3 294C18.7 293 37.3 291 56.2 291C75 291 94 293 112.8 291C131.7 289 150.3 283 169 284C187.7 285 206.3 293 225 298C243.7 303 262.3 305 281.2 309C300 313 319 319 337.8 320C356.7 321 375.3 317 394 315C412.7 313 431.3 313 450 309C468.7 305 487.3 297 506.2 296C525 295 544 301 562.8 305C581.7 309 600.3 311 619 312C637.7 313 656.3 313 675 313C693.7 313 712.3 313 731.2 316C750 319 769 325 787.8 322C806.7 319 825.3 307 844 303C862.7 299 881.3 303 890.7 305L900 307L900 191L890.7 192C881.3 193 862.7 195 844 194C825.3 193 806.7 189 787.8 189C769 189 750 193 731.2 192C712.3 191 693.7 185 675 185C656.3 185 637.7 191 619 189C600.3 187 581.7 177 562.8 173C544 169 525 171 506.2 175C487.3 179 468.7 185 450 187C431.3 189 412.7 187 394 184C375.3 181 356.7 177 337.8 175C319 173 300 173 281.2 174C262.3 175 243.7 177 225 177C206.3 177 187.7 175 169 178C150.3 181 131.7 189 112.8 193C94 197 75 197 56.2 195C37.3 193 18.7 189 9.3 187L0 185Z" fill="#bafdb6"></path><path d="M0 331L9.3 332C18.7 333 37.3 335 56.2 336C75 337 94 337 112.8 335C131.7 333 150.3 329 169 331C187.7 333 206.3 341 225 345C243.7 349 262.3 349 281.2 351C300 353 319 357 337.8 359C356.7 361 375.3 361 394 360C412.7 359 431.3 357 450 352C468.7 347 487.3 339 506.2 338C525 337 544 343 562.8 346C581.7 349 600.3 349 619 349C637.7 349 656.3 349 675 351C693.7 353 712.3 357 731.2 361C750 365 769 369 787.8 365C806.7 361 825.3 349 844 345C862.7 341 881.3 345 890.7 347L900 349L900 305L890.7 303C881.3 301 862.7 297 844 301C825.3 305 806.7 317 787.8 320C769 323 750 317 731.2 314C712.3 311 693.7 311 675 311C656.3 311 637.7 311 619 310C600.3 309 581.7 307 562.8 303C544 299 525 293 506.2 294C487.3 295 468.7 303 450 307C431.3 311 412.7 311 394 313C375.3 315 356.7 319 337.8 318C319 317 300 311 281.2 307C262.3 303 243.7 301 225 296C206.3 291 187.7 283 169 282C150.3 281 131.7 287 112.8 289C94 291 75 289 56.2 289C37.3 289 18.7 291 9.3 292L0 293Z" fill="#c6fcc4"></path><path d="M0 481L9.3 480C18.7 479 37.3 477 56.2 477C75 477 94 479 112.8 479C131.7 479 150.3 477 169 477C187.7 477 206.3 479 225 477C243.7 475 262.3 469 281.2 469C300 469 319 475 337.8 478C356.7 481 375.3 481 394 483C412.7 485 431.3 489 450 485C468.7 481 487.3 469 506.2 463C525 457 544 457 562.8 460C581.7 463 600.3 469 619 472C637.7 475 656.3 475 675 475C693.7 475 712.3 475 731.2 476C750 477 769 479 787.8 477C806.7 475 825.3 469 844 468C862.7 467 881.3 471 890.7 473L900 475L900 347L890.7 345C881.3 343 862.7 339 844 343C825.3 347 806.7 359 787.8 363C769 367 750 363 731.2 359C712.3 355 693.7 351 675 349C656.3 347 637.7 347 619 347C600.3 347 581.7 347 562.8 344C544 341 525 335 506.2 336C487.3 337 468.7 345 450 350C431.3 355 412.7 357 394 358C375.3 359 356.7 359 337.8 357C319 355 300 351 281.2 349C262.3 347 243.7 347 225 343C206.3 339 187.7 331 169 329C150.3 327 131.7 331 112.8 333C94 335 75 335 56.2 334C37.3 333 18.7 331 9.3 330L0 329Z" fill="#d3fbd1"></path><path d="M0 523L9.3 524C18.7 525 37.3 527 56.2 528C75 529 94 529 112.8 529C131.7 529 150.3 529 169 528C187.7 527 206.3 525 225 523C243.7 521 262.3 519 281.2 520C300 521 319 525 337.8 527C356.7 529 375.3 529 394 531C412.7 533 431.3 537 450 534C468.7 531 487.3 521 506.2 516C525 511 544 511 562.8 512C581.7 513 600.3 515 619 517C637.7 519 656.3 521 675 522C693.7 523 712.3 523 731.2 523C750 523 769 523 787.8 522C806.7 521 825.3 519 844 518C862.7 517 881.3 517 890.7 517L900 517L900 473L890.7 471C881.3 469 862.7 465 844 466C825.3 467 806.7 473 787.8 475C769 477 750 475 731.2 474C712.3 473 693.7 473 675 473C656.3 473 637.7 473 619 470C600.3 467 581.7 461 562.8 458C544 455 525 455 506.2 461C487.3 467 468.7 479 450 483C431.3 487 412.7 483 394 481C375.3 479 356.7 479 337.8 476C319 473 300 467 281.2 467C262.3 467 243.7 473 225 475C206.3 477 187.7 475 169 475C150.3 475 131.7 477 112.8 477C94 477 75 475 56.2 475C37.3 475 18.7 477 9.3 478L0 479Z" fill="#dffade"></path><path d="M0 601L9.3 601C18.7 601 37.3 601 56.2 601C75 601 94 601 112.8 601C131.7 601 150.3 601 169 601C187.7 601 206.3 601 225 601C243.7 601 262.3 601 281.2 601C300 601 319 601 337.8 601C356.7 601 375.3 601 394 601C412.7 601 431.3 601 450 601C468.7 601 487.3 601 506.2 601C525 601 544 601 562.8 601C581.7 601 600.3 601 619 601C637.7 601 656.3 601 675 601C693.7 601 712.3 601 731.2 601C750 601 769 601 787.8 601C806.7 601 825.3 601 844 601C862.7 601 881.3 601 890.7 601L900 601L900 515L890.7 515C881.3 515 862.7 515 844 516C825.3 517 806.7 519 787.8 520C769 521 750 521 731.2 521C712.3 521 693.7 521 675 520C656.3 519 637.7 517 619 515C600.3 513 581.7 511 562.8 510C544 509 525 509 506.2 514C487.3 519 468.7 529 450 532C431.3 535 412.7 531 394 529C375.3 527 356.7 527 337.8 525C319 523 300 519 281.2 518C262.3 517 243.7 519 225 521C206.3 523 187.7 525 169 526C150.3 527 131.7 527 112.8 527C94 527 75 527 56.2 526C37.3 525 18.7 523 9.3 522L0 521Z" fill="#ebf8eb"></path></svg>