<svg id="visual" viewBox="0 0 900 600" width="900" height="600" xmlns="http://www.w3.org/2000/svg" xmlns:xlink="http://www.w3.org/1999/xlink" version="1.1"><rect x="0" y="0" width="900" height="600" fill="#fef7c5"></rect><path d="M0 551L43 555L86 549L129 548L171 546L214 542L257 545L300 553L343 552L386 551L429 554L471 554L514 548L557 543L600 545L643 545L686 548L729 555L771 555L814 552L857 551L900 546L900 601L857 601L814 601L771 601L729 601L686 601L643 601L600 601L557 601L514 601L471 601L429 601L386 601L343 601L300 601L257 601L214 601L171 601L129 601L86 601L43 601L0 601Z" fill="#f7ab38"></path><path d="M0 547L43 558L86 559L129 550L171 556L214 555L257 556L300 558L343 554L386 547L429 551L471 556L514 556L557 557L600 555L643 548L686 548L729 551L771 557L814 547L857 549L900 559L900 601L857 601L814 601L771 601L729 601L686 601L643 601L600 601L557 601L514 601L471 601L429 601L386 601L343 601L300 601L257 601L214 601L171 601L129 601L86 601L43 601L0 601Z" fill="#e5a92c"></path><path d="M0 557L43 559L86 554L129 561L171 558L214 554L257 552L300 555L343 556L386 556L429 559L471 560L514 559L557 555L600 563L643 560L686 561L729 556L771 560L814 552L857 561L900 552L900 601L857 601L814 601L771 601L729 601L686 601L643 601L600 601L557 601L514 601L471 601L429 601L386 601L343 601L300 601L257 601L214 601L171 601L129 601L86 601L43 601L0 601Z" fill="#d2a620"></path><path d="M0 562L43 566L86 559L129 559L171 558L214 559L257 566L300 562L343 561L386 565L429 561L471 559L514 559L557 557L600 562L643 563L686 561L729 561L771 566L814 556L857 558L900 565L900 601L857 601L814 601L771 601L729 601L686 601L643 601L600 601L557 601L514 601L471 601L429 601L386 601L343 601L300 601L257 601L214 601L171 601L129 601L86 601L43 601L0 601Z" fill="#c0a314"></path><path d="M0 562L43 570L86 570L129 563L171 565L214 566L257 569L300 561L343 561L386 569L429 563L471 560L514 562L557 567L600 567L643 567L686 570L729 569L771 561L814 568L857 570L900 566L900 601L857 601L814 601L771 601L729 601L686 601L643 601L600 601L557 601L514 601L471 601L429 601L386 601L343 601L300 601L257 601L214 601L171 601L129 601L86 601L43 601L0 601Z" fill="#ada009"></path><path d="M0 567L43 567L86 567L129 566L171 571L214 572L257 572L300 574L343 567L386 571L429 573L471 569L514 574L557 569L600 572L643 568L686 569L729 573L771 569L814 569L857 573L900 567L900 601L857 601L814 601L771 601L729 601L686 601L643 601L600 601L557 601L514 601L471 601L429 601L386 601L343 601L300 601L257 601L214 601L171 601L129 601L86 601L43 601L0 601Z" fill="#9a9d02"></path><path d="M0 571L43 574L86 572L129 575L171 576L214 575L257 569L300 572L343 578L386 573L429 575L471 577L514 577L557 574L600 569L643 570L686 569L729 574L771 570L814 573L857 570L900 573L900 601L857 601L814 601L771 601L729 601L686 601L643 601L600 601L557 601L514 601L471 601L429 601L386 601L343 601L300 601L257 601L214 601L171 601L129 601L86 601L43 601L0 601Z" fill="#879900"></path><path d="M0 576L43 580L86 580L129 577L171 577L214 579L257 576L300 578L343 579L386 580L429 578L471 581L514 578L557 578L600 578L643 579L686 577L729 578L771 577L814 579L857 581L900 576L900 601L857 601L814 601L771 601L729 601L686 601L643 601L600 601L557 601L514 601L471 601L429 601L386 601L343 601L300 601L257 601L214 601L171 601L129 601L86 601L43 601L0 601Z" fill="#749502"></path><path d="M0 579L43 579L86 582L129 580L171 584L214 582L257 580L300 582L343 581L386 585L429 582L471 581L514 584L557 580L600 585L643 582L686 582L729 582L771 580L814 581L857 585L900 584L900 601L857 601L814 601L771 601L729 601L686 601L643 601L600 601L557 601L514 601L471 601L429 601L386 601L343 601L300 601L257 601L214 601L171 601L129 601L86 601L43 601L0 601Z" fill="#609008"></path><path d="M0 588L43 586L86 588L129 585L171 584L214 583L257 589L300 582L343 585L386 583L429 590L471 588L514 585L557 589L600 586L643 589L686 588L729 583L771 590L814 589L857 583L900 586L900 601L857 601L814 601L771 601L729 601L686 601L643 601L600 601L557 601L514 601L471 601L429 601L386 601L343 601L300 601L257 601L214 601L171 601L129 601L86 601L43 601L0 601Z" fill="#4b8c10"></path><path d="M0 588L43 594L86 588L129 591L171 593L214 590L257 594L300 591L343 590L386 593L429 594L471 593L514 588L557 587L600 592L643 590L686 592L729 589L771 590L814 589L857 592L900 587L900 601L857 601L814 601L771 601L729 601L686 601L643 601L600 601L557 601L514 601L471 601L429 601L386 601L343 601L300 601L257 601L214 601L171 601L129 601L86 601L43 601L0 601Z" fill="#338617"></path><path d="M0 595L43 595L86 595L129 595L171 592L214 596L257 592L300 593L343 593L386 596L429 593L471 594L514 593L557 595L600 593L643 594L686 595L729 596L771 594L814 597L857 597L900 598L900 601L857 601L814 601L771 601L729 601L686 601L643 601L600 601L557 601L514 601L471 601L429 601L386 601L343 601L300 601L257 601L214 601L171 601L129 601L86 601L43 601L0 601Z" fill="#0c811e"></path></svg>