<svg id="visual" viewBox="0 0 900 600" width="900" height="600" xmlns="http://www.w3.org/2000/svg" xmlns:xlink="http://www.w3.org/1999/xlink" version="1.1"><path d="M0 85L75 67L150 79L225 67L300 55L375 73L450 97L525 67L600 79L675 97L750 73L825 91L900 61L900 0L825 0L750 0L675 0L600 0L525 0L450 0L375 0L300 0L225 0L150 0L75 0L0 0Z" fill="#f7770f"></path><path d="M0 121L75 109L150 115L225 109L300 97L375 121L450 133L525 97L600 109L675 145L750 121L825 115L900 91L900 59L825 89L750 71L675 95L600 77L525 65L450 95L375 71L300 53L225 65L150 77L75 65L0 83Z" fill="#f48700"></path><path d="M0 157L75 145L150 163L225 157L300 127L375 151L450 163L525 133L600 145L675 199L750 169L825 151L900 133L900 89L825 113L750 119L675 143L600 107L525 95L450 131L375 119L300 95L225 107L150 113L75 107L0 119Z" fill="#f09600"></path><path d="M0 199L75 181L150 205L225 193L300 163L375 175L450 193L525 175L600 181L675 223L750 199L825 181L900 157L900 131L825 149L750 167L675 197L600 143L525 131L450 161L375 149L300 125L225 155L150 161L75 143L0 155Z" fill="#eba400"></path><path d="M0 217L75 211L150 223L225 229L300 193L375 193L450 217L525 211L600 211L675 247L750 229L825 205L900 187L900 155L825 179L750 197L675 221L600 179L525 173L450 191L375 173L300 161L225 191L150 203L75 179L0 197Z" fill="#e5b200"></path><path d="M0 259L75 253L150 289L225 277L300 241L375 235L450 271L525 259L600 271L675 289L750 271L825 283L900 241L900 185L825 203L750 227L675 245L600 209L525 209L450 215L375 191L300 191L225 227L150 221L75 209L0 215Z" fill="#debf00"></path><path d="M0 289L75 271L150 313L225 301L300 265L375 259L450 289L525 283L600 301L675 307L750 289L825 307L900 271L900 239L825 281L750 269L675 287L600 269L525 257L450 269L375 233L300 239L225 275L150 287L75 251L0 257Z" fill="#d6cc17"></path><path d="M0 349L75 331L150 361L225 349L300 319L375 319L450 343L525 319L600 337L675 355L750 331L825 361L900 325L900 269L825 305L750 287L675 305L600 299L525 281L450 287L375 257L300 263L225 299L150 311L75 269L0 287Z" fill="#cdd82a"></path><path d="M0 457L75 463L150 487L225 427L300 481L375 457L450 481L525 451L600 463L675 457L750 439L825 463L900 409L900 323L825 359L750 329L675 353L600 335L525 317L450 341L375 317L300 317L225 347L150 359L75 329L0 347Z" fill="#c2e53d"></path><path d="M0 481L75 481L150 517L225 451L300 499L375 487L450 511L525 469L600 481L675 475L750 457L825 481L900 439L900 407L825 461L750 437L675 455L600 461L525 449L450 479L375 455L300 479L225 425L150 485L75 461L0 455Z" fill="#b7f051"></path><path d="M0 601L75 601L150 601L225 601L300 601L375 601L450 601L525 601L600 601L675 601L750 601L825 601L900 601L900 437L825 479L750 455L675 473L600 479L525 467L450 509L375 485L300 497L225 449L150 515L75 479L0 479Z" fill="#a9fc65"></path></svg>